<svg width="319" height="271" viewBox="0 0 319 271" fill="none" xmlns="http://www.w3.org/2000/svg">
<path fill-rule="evenodd" clip-rule="evenodd" d="M121.2 97.6001L138.8 157.8H139.1L172.6 60.9001L155.4 1.80005H154.4H92.3L38.4 157.7H100.5L121.2 97.6001Z" fill="#F0A11F" stroke="white" stroke-width="3" stroke-miterlimit="3" stroke-linecap="square"/>
<path fill-rule="evenodd" clip-rule="evenodd" d="M178.1 50.9L124.2 206.8H186.3L206.6 148.2L223.7 206.8H285.8L240.3 50.9H178.1Z" fill="#005EA1" stroke="white" stroke-width="3" stroke-miterlimit="3" stroke-linecap="square"/>
<path d="M100.4 157.8H38.3L92.2001 1.90002H154.3L100.4 157.8Z" fill="#FFC519"/>
<path fill-rule="evenodd" clip-rule="evenodd" d="M139.1 157.8H138.8L93.3 1.90002H155.4L172.6 61L139.1 157.8Z" fill="#F0A11F"/>
<path d="M186.2 206.8H124.1L178 50.9H240.1L186.2 206.8Z" fill="#005EA1"/>
<path d="M223.6 206.8H285.7L240.2 50.9H178.1L223.6 206.8Z" fill="#10487A"/>
<path d="M2.40005 248.3H2.20007V228.4C2.20007 226.4 3.40005 225 5.80005 224C7.20005 223.4 8.60005 223.1 10.3 223.1C11.9 223.1 13.4 223.4 14.8 224C17.2 225 18.4001 226.5 18.4001 228.4C18.4001 228.4 18.4001 234.6 18.4001 246.9L15.4001 248.3H15.2001V237H5.40005V246.9L2.40005 248.3ZM5.40005 228.4V234.1H15.2001V228.4C15.2001 227.7 14.6 227 13.3 226.5C12.4 226.1 11.4 226 10.3 226C9.20005 226 8.20005 226.2 7.30005 226.5C6.10005 227 5.40005 227.6 5.40005 228.4ZM39.7001 247.6H26.8V224.2L29.8 222.8H30.0001V244.8H41.0001V245L39.7001 247.6ZM44.5001 248.3H44.3V224.2L47.3 222.8H47.5001V246.9L44.5001 248.3ZM55.3 242.6V240.2L58.3 238.8H58.5001V242.7C58.5001 243.4 59.1001 244.1 60.4001 244.6C61.3001 245 62.3001 245.1 63.4001 245.1C64.5001 245.1 65.5001 244.9 66.4001 244.6C67.7001 244.1 68.3 243.5 68.3 242.7V238C68.3 237.3 67.7001 236.6 66.4001 236.1C65.5001 235.7 64.5001 235.6 63.4001 235.6C62.0001 235.6 60.8001 235.4 59.7001 235C57.7001 234.2 56.7001 233.1 56.7001 231.7V227C56.7001 225.6 57.7001 224.5 59.7001 223.7C60.8001 223.3 62.0001 223.1 63.4001 223.1C64.8001 223.1 66 223.3 67.1 223.7C69.1 224.5 70.1 225.6 70.1 227V229.1L67.1 230.5H66.9001V227.6C66.9001 227.1 66.6001 226.7 65.9001 226.4C65.2001 226.1 64.4001 226 63.5001 226C62.5001 226 61.7 226.1 61.1 226.4C60.4 226.7 60.1 227.1 60.1 227.6V231.1C60.1 231.6 60.4 232 61.1 232.3C61.8 232.6 62.6001 232.7 63.5001 232.7C65.1001 232.7 66.6001 233 68.0001 233.6C70.4001 234.6 71.6 236.1 71.6 238V242.7C71.6 244.6 70.4001 246.1 68.0001 247.1C66.6001 247.7 65.2001 248 63.5001 248C61.9001 248 60.4001 247.7 59.0001 247.1C56.6001 246.1 55.3 244.6 55.3 242.6ZM78.7001 242.6V240.2L81.7001 238.8H81.9001V242.7C81.9001 243.4 82.5 244.1 83.8 244.6C84.7001 245 85.7001 245.1 86.8 245.1C87.9 245.1 88.9 244.9 89.8 244.6C91.1001 244.1 91.7001 243.5 91.7001 242.7V238C91.7001 237.3 91.1001 236.6 89.8 236.1C88.9 235.7 87.9 235.6 86.8 235.6C85.4 235.6 84.2 235.4 83.1 235C81.1 234.2 80.1 233.1 80.1 231.7V227C80.1 225.6 81.1 224.5 83.1 223.7C84.2 223.3 85.4 223.1 86.8 223.1C88.2001 223.1 89.4001 223.3 90.5001 223.7C92.5001 224.5 93.5001 225.6 93.5001 227V229.1L90.5001 230.5H90.3V227.6C90.3 227.1 90 226.7 89.3 226.4C88.6001 226.1 87.8001 226 86.9001 226C85.9001 226 85.1001 226.1 84.5001 226.4C83.8001 226.7 83.5001 227.1 83.5001 227.6V231.1C83.5001 231.6 83.8001 232 84.5001 232.3C85.2001 232.6 86.0001 232.7 86.9001 232.7C88.5001 232.7 90.0001 233 91.4001 233.6C93.8001 234.6 95.0001 236.1 95.0001 238V242.7C95.0001 244.6 93.8001 246.1 91.4001 247.1C90.0001 247.7 88.6001 248 86.9001 248C85.3001 248 83.8001 247.7 82.4001 247.1C79.9001 246.1 78.7001 244.6 78.7001 242.6ZM105.8 228.4V242.7C105.8 243.4 106.4 244.1 107.7 244.6C108.6 245 109.6 245.1 110.7 245.1C111.8 245.1 112.8 244.9 113.7 244.6C115 244.1 115.6 243.5 115.6 242.7V228.4C115.6 227.7 115 227 113.7 226.5C112.8 226.1 111.8 226 110.7 226C109.6 226 108.6 226.2 107.7 226.5C106.5 227 105.8 227.6 105.8 228.4ZM102.6 242.6C102.6 242.6 102.6 237.8 102.6 228.3C102.6 226.3 103.8 224.9 106.2 223.9C107.6 223.3 109 223 110.7 223C112.3 223 113.8 223.3 115.2 223.9C117.6 224.9 118.8 226.4 118.8 228.3V242.6C118.8 244.6 117.6 246 115.2 247C113.8 247.6 112.4 247.9 110.7 247.9C109.1 247.9 107.6 247.6 106.2 247C103.8 246.1 102.6 244.6 102.6 242.6ZM127.4 248.3H127.2V228.4C127.2 226.4 128.4 225 130.8 224C132.2 223.4 133.6 223.1 135.3 223.1C136.9 223.1 138.4 223.4 139.8 224C142.2 225 143.4 226.5 143.4 228.4V246.9L140.4 248.3H140.2V228.4C140.2 227.7 139.6 227 138.3 226.5C137.4 226.1 136.4 226 135.3 226C134.2 226 133.2 226.2 132.3 226.5C131 227 130.4 227.6 130.4 228.4V246.9L127.4 248.3Z" fill="#F0A11F"/>
<path d="M191.8 267.6V266.5L193.2 265.9H193.3V267.6C193.3 267.9 193.6 268.2 194.2 268.4C194.6 268.6 195 268.6 195.5 268.6C196 268.6 196.4 268.5 196.8 268.4C197.4 268.2 197.7 267.9 197.7 267.6V265.5C197.7 265.2 197.4 264.9 196.8 264.7C196.4 264.5 196 264.5 195.5 264.5C194.9 264.5 194.3 264.4 193.9 264.2C193 263.8 192.6 263.4 192.6 262.7V260.6C192.6 260 193 259.5 193.9 259.1C194.4 258.9 194.9 258.8 195.5 258.8C196.1 258.8 196.7 258.9 197.1 259.1C198 259.5 198.4 259.9 198.4 260.6V261.5L197 262.1H196.9V260.8C196.9 260.6 196.8 260.4 196.5 260.3C196.2 260.2 195.8 260.1 195.4 260.1C195 260.1 194.6 260.2 194.3 260.3C194 260.4 193.9 260.6 193.9 260.8V262.4C193.9 262.6 194 262.8 194.3 262.9C194.6 263 195 263.1 195.4 263.1C196.1 263.1 196.8 263.2 197.4 263.5C198.5 263.9 199 264.6 199 265.5V267.6C199 268.5 198.5 269.1 197.4 269.6C196.8 269.9 196.1 270 195.4 270C194.7 270 194 269.9 193.4 269.6C192.3 269.1 191.8 268.5 191.8 267.6ZM209.6 270.1L209.5 259.3L210.9 258.7H211V269.5L209.6 270.1ZM221.5 267.6V266.5L222.9 265.9H223V267.6C223 267.9 223.3 268.2 223.9 268.4C224.3 268.6 224.7 268.6 225.2 268.6C225.7 268.6 226.1 268.5 226.5 268.4C227.1 268.2 227.4 267.9 227.4 267.6V265.5C227.4 265.2 227.1 264.9 226.5 264.7C226.1 264.5 225.7 264.5 225.2 264.5C224.6 264.5 224 264.4 223.6 264.2C222.7 263.8 222.3 263.4 222.3 262.7V260.6C222.3 260 222.7 259.5 223.6 259.1C224.1 258.9 224.6 258.8 225.2 258.8C225.8 258.8 226.4 258.9 226.8 259.1C227.7 259.5 228.1 259.9 228.1 260.6V261.5L226.7 262.1H226.6V260.8C226.6 260.6 226.5 260.4 226.2 260.3C225.9 260.2 225.5 260.1 225.1 260.1C224.7 260.1 224.3 260.2 224 260.3C223.7 260.4 223.6 260.6 223.6 260.8V262.4C223.6 262.6 223.7 262.8 224 262.9C224.3 263 224.7 263.1 225.1 263.1C225.8 263.1 226.5 263.2 227.1 263.5C228.2 263.9 228.7 264.6 228.7 265.5V267.6C228.7 268.5 228.2 269.1 227.1 269.6C226.5 269.9 225.8 270 225.1 270C224.4 270 223.7 269.9 223.1 269.6C222 269.1 221.5 268.5 221.5 267.6ZM239.9 270.1L239.8 260.3H236.7V260.2L237.3 259H244.3V259.1L243.7 260.3H241.2V269.5L239.9 270.1ZM258.9 269.8H253V259.3L253.8 258.9H258.3V259L257.7 260.2H254.4V263.7H258.3V263.8L257.7 265H254.4V268.5H259.5V268.6L258.9 269.8ZM269.3 270.1L269.2 261.2C269.2 260.3 269.7 259.7 270.8 259.2C271.4 258.9 272.1 258.8 272.8 258.8C273.5 258.8 274.2 258.9 274.8 259.2C275.2 259.4 275.5 259.5 275.7 259.7C275.9 259.5 276.2 259.3 276.6 259.2C277.2 258.9 277.9 258.8 278.6 258.8C279.3 258.8 280 258.9 280.6 259.2C281.7 259.6 282.2 260.3 282.2 261.2V269.4L280.8 270H280.7V261.1C280.7 260.8 280.4 260.5 279.8 260.3C279.4 260.1 279 260.1 278.5 260.1C278 260.1 277.6 260.2 277.2 260.3C276.6 260.5 276.3 260.8 276.3 261.1V269.3L274.9 269.9H275V261C275 260.7 274.7 260.4 274.1 260.2C273.7 260 273.3 260 272.8 260C272.3 260 271.9 260.1 271.5 260.2C270.9 260.4 270.6 260.7 270.6 261V269.2L269.3 270.1ZM293.1 270.1L293 261.2C293 260.3 293.5 259.7 294.6 259.2C295.2 258.9 295.9 258.8 296.6 258.8C297.3 258.8 298 258.9 298.6 259.2C299.7 259.6 300.2 260.3 300.2 261.2C300.2 261.2 300.2 263.9 300.2 269.4L298.8 270H298.7V265H294.3V269.4L293.1 270.1ZM294.5 261.2V263.7H298.9V261.2C298.9 260.9 298.6 260.6 298 260.4C297.6 260.2 297.2 260.2 296.7 260.2C296.2 260.2 295.8 260.3 295.4 260.4C294.8 260.6 294.5 260.9 294.5 261.2ZM310.8 267.6V266.5L312.2 265.9H312.3V267.6C312.3 267.9 312.6 268.2 313.2 268.4C313.6 268.6 314 268.6 314.5 268.6C315 268.6 315.4 268.5 315.8 268.4C316.4 268.2 316.7 267.9 316.7 267.6V265.5C316.7 265.2 316.4 264.9 315.8 264.7C315.4 264.5 315 264.5 314.5 264.5C313.9 264.5 313.3 264.4 312.9 264.2C312 263.8 311.6 263.4 311.6 262.7V260.6C311.6 260 312 259.5 312.9 259.1C313.4 258.9 313.9 258.8 314.5 258.8C315.1 258.8 315.7 258.9 316.1 259.1C317 259.5 317.4 259.9 317.4 260.6V261.5L316 262.1V260.8C316 260.6 315.9 260.4 315.6 260.3C315.3 260.2 314.9 260.1 314.5 260.1C314.1 260.1 313.7 260.2 313.4 260.3C313.1 260.4 313 260.6 313 260.8V262.4C313 262.6 313.1 262.8 313.4 262.9C313.7 263 314.1 263.1 314.5 263.1C315.2 263.1 315.9 263.2 316.5 263.5C317.6 263.9 318.1 264.6 318.1 265.5V267.6C318.1 268.5 317.6 269.1 316.5 269.6C315.9 269.9 315.2 270 314.5 270C313.8 270 313.1 269.9 312.5 269.6C311.4 269.1 310.8 268.5 310.8 267.6ZM145.7 260.3V268.5H147.7C148.2 268.5 148.6 268.4 149 268.3C149.6 268.1 149.9 267.8 149.9 267.5V261.4C149.9 261.1 149.6 260.8 149 260.6C148.6 260.4 148.2 260.4 147.7 260.4H145.7V260.3ZM147.7 269.8H144.2V259.3L145 258.9H147.7C148.4 258.9 149.1 259 149.7 259.3C150.8 259.7 151.3 260.4 151.3 261.3V267.4C151.3 268.3 150.8 268.9 149.7 269.4C149.1 269.7 148.5 269.8 147.7 269.8ZM168.1 269.8H162.2V259.3L163 258.9H167.5V259L166.9 260.2H163.6V263.7H167.5V263.8L166.9 265H163.6V268.5H168.7V268.6L168.1 269.8ZM0.500031 270.1L0.400024 261.2C0.400024 260.3 0.90003 259.7 2.00003 259.2C2.60003 258.9 3.30003 258.8 4.00003 258.8C4.70003 258.8 5.40003 258.9 6.00003 259.2C7.10003 259.6 7.60004 260.3 7.60004 261.2C7.60004 261.2 7.60004 263.9 7.60004 269.4L6.20004 270H6.10004V265H1.70004V269.4L0.500031 270.1ZM1.90002 261.2V263.7H6.30002V261.2C6.30002 260.9 6.00002 260.6 5.40002 260.4C5.00002 260.2 4.60004 260.2 4.10004 260.2C3.60004 260.2 3.20002 260.3 2.80002 260.4C2.20002 260.6 1.90002 260.9 1.90002 261.2ZM18.5 270.1L18.4 261.2C18.4 260.3 18.9 259.7 20 259.2C20.6 258.9 21.3 258.8 22 258.8C22.7 258.8 23.4 258.9 24 259.2C25.1 259.6 25.6 260.3 25.6 261.2V269.4L24.2 270H24.1V261.1C24.1 260.8 23.8 260.5 23.2 260.3C22.8 260.1 22.4 260.1 21.9 260.1C21.4 260.1 21 260.2 20.6 260.3C20 260.5 19.7 260.8 19.7 261.1V269.3L18.5 270.1ZM36.6 270.1L36.5 261.2C36.5 260.3 37 259.7 38.1 259.2C38.7 258.9 39.4 258.8 40.1 258.8C40.8 258.8 41.5 258.9 42.1 259.2C43.2 259.6 43.7 260.3 43.7 261.2C43.7 261.2 43.7 263.9 43.7 269.4L42.3 270H42.2V265H38V269.4L36.6 270.1ZM38 261.2V263.7H42.4V261.2C42.4 260.9 42.1 260.6 41.5 260.4C41.1 260.2 40.7 260.2 40.2 260.2C39.7 260.2 39.3 260.3 38.9 260.4C38.2 260.6 38 260.9 38 261.2ZM60.3 269.8H54.5V259.3L55.9001 258.7H56V268.5H60.9001V268.6L60.3 269.8ZM69.5 270.1L69.4001 259.3L70.8 258.7H70.9001V269.5L69.5 270.1ZM81.4001 267.6V266.5L82.8 265.9H82.9001V267.6C82.9001 267.9 83.2 268.2 83.8 268.4C84.2 268.6 84.6 268.6 85.1 268.6C85.6 268.6 86.0001 268.5 86.4001 268.4C87.0001 268.2 87.3 267.9 87.3 267.6V265.5C87.3 265.2 87.0001 264.9 86.4001 264.7C86.0001 264.5 85.6 264.5 85.1 264.5C84.5 264.5 83.9 264.4 83.5 264.2C82.6 263.8 82.2 263.4 82.2 262.7V260.6C82.2 260 82.6 259.5 83.5 259.1C84 258.9 84.5 258.8 85.1 258.8C85.7 258.8 86.3 258.9 86.7 259.1C87.6 259.5 88 259.9 88 260.6V261.5L86.6 262.1H86.5V260.8C86.5 260.6 86.4 260.4 86.1 260.3C85.8 260.2 85.4 260.1 85 260.1C84.6 260.1 84.2001 260.2 83.9001 260.3C83.6001 260.4 83.5 260.6 83.5 260.8V262.4C83.5 262.6 83.6001 262.8 83.9001 262.9C84.2001 263 84.6 263.1 85 263.1C85.7 263.1 86.4 263.2 87 263.5C88.1 263.9 88.6 264.6 88.6 265.5V267.6C88.6 268.5 88.1 269.1 87 269.6C86.4 269.9 85.7 270 85 270C84.3 270 83.6 269.9 83 269.6C81.9 269.1 81.4001 268.5 81.4001 267.6ZM99.8 270.1L99.7 260.3H96.6V260.2L97.2 259H104.2V259.1L103.6 260.3H101.1V269.5L99.8 270.1ZM112.6 270.1L112.5 261.2C112.5 260.3 113 259.7 114.1 259.2C114.7 258.9 115.4 258.8 116.1 258.8C116.8 258.8 117.5 258.9 118.1 259.2C119.2 259.6 119.7 260.3 119.7 261.2C119.7 261.2 119.7 263.9 119.7 269.4L118.3 270H118.2V265H114V269.4L112.6 270.1ZM114 261.2V263.7H118.4V261.2C118.4 260.9 118.1 260.6 117.5 260.4C117.1 260.2 116.7 260.2 116.2 260.2C115.7 260.2 115.3 260.3 114.9 260.4C114.3 260.6 114 260.9 114 261.2Z" fill="#C1C1C1"/>
<path d="M164.1 248.3L164 228.4C164 226.4 165.2 225 167.6 224C169 223.4 170.4 223.1 172.1 223.1C173.7 223.1 175.2 223.4 176.6 224C179 225 180.2 226.5 180.2 228.4C180.2 228.4 180.2 234.6 180.2 246.9L177.2 248.3H177V237H167.2V246.9L164.1 248.3ZM167.2 228.4V234.1H177V228.4C177 227.7 176.4 227 175.1 226.5C174.2 226.1 173.2 226 172.1 226C171 226 170 226.2 169.1 226.5C167.8 227 167.2 227.6 167.2 228.4ZM201.5 247.6H188.6V224.2L191.6 222.8H191.8V244.8H202.8V245L201.5 247.6ZM206.3 248.3H206.1V228.4C206.1 226.4 207.3 225 209.7 224C211.1 223.4 212.5 223.1 214.2 223.1C215.8 223.1 217.3 223.4 218.7 224C219.5 224.3 220.2 224.7 220.7 225.2C221.2 224.8 221.9 224.4 222.7 224C224 223.4 225.5 223.1 227.2 223.1C228.8 223.1 230.3 223.4 231.7 224C234.1 225 235.3 226.5 235.3 228.4V246.9L232.3 248.3H232.1V228.4C232.1 227.7 231.5 227 230.2 226.5C229.3 226.1 228.3 226 227.2 226C226.1 226 225.1 226.2 224.2 226.5C222.9 227 222.3 227.6 222.3 228.4V246.9L219.3 248.3H219.1V228.4C219.1 227.7 218.5 227 217.2 226.5C216.3 226.1 215.3 226 214.2 226C213.1 226 212.1 226.2 211.2 226.5C209.9 227 209.3 227.6 209.3 228.4V246.9L206.3 248.3ZM257 247.6H243.7V224.2L245.4 223.4H255.6V223.6L254.3 226.4H247V234.1H255.7V234.3L254.4 237.1H247V244.8H258.3V245L257 247.6ZM264.5 248.3H264.3V224.2L267.3 222.8H267.5V246.9L264.5 248.3ZM279.1 226.3V244.8H283.7C284.8 244.8 285.8 244.6 286.7 244.3C288 243.8 288.6 243.2 288.6 242.4V228.8C288.6 228.1 288 227.4 286.7 226.9C285.8 226.5 284.8 226.4 283.7 226.4L279.1 226.3ZM283.7 247.6H275.9V224.2L277.6 223.4H283.7C285.3 223.4 286.8 223.7 288.2 224.3C290.6 225.3 291.8 226.8 291.8 228.7V242.3C291.8 244.3 290.6 245.7 288.2 246.7C286.8 247.3 285.3 247.6 283.7 247.6ZM300.3 248.3H300.1V228.4C300.1 226.4 301.3 225 303.7 224C305.1 223.4 306.5 223.1 308.2 223.1C309.8 223.1 311.3 223.4 312.7 224C315.1 225 316.3 226.5 316.3 228.4C316.3 228.4 316.3 234.6 316.3 246.9L313.3 248.3H313.1V237H303.3V246.9L300.3 248.3ZM303.4 228.4V234.1H313.2V228.4C313.2 227.7 312.6 227 311.3 226.5C310.4 226.1 309.4 226 308.3 226C307.2 226 306.2 226.2 305.3 226.5C304 227 303.4 227.6 303.4 228.4Z" fill="#10487A" stroke="white" stroke-width="3" stroke-miterlimit="3" stroke-linecap="square"/>
<path d="M164.1 248.3L164 228.4C164 226.4 165.2 225 167.6 224C169 223.4 170.4 223.1 172.1 223.1C173.7 223.1 175.2 223.4 176.6 224C179 225 180.2 226.5 180.2 228.4C180.2 228.4 180.2 234.6 180.2 246.9L177.2 248.3H177V237H167.2V246.9L164.1 248.3ZM167.2 228.4V234.1H177V228.4C177 227.7 176.4 227 175.1 226.5C174.2 226.1 173.2 226 172.1 226C171 226 170 226.2 169.1 226.5C167.8 227 167.2 227.6 167.2 228.4ZM201.5 247.6H188.6V224.2L191.6 222.8H191.8V244.8H202.8V245L201.5 247.6ZM206.3 248.3H206.1V228.4C206.1 226.4 207.3 225 209.7 224C211.1 223.4 212.5 223.1 214.2 223.1C215.8 223.1 217.3 223.4 218.7 224C219.5 224.3 220.2 224.7 220.7 225.2C221.2 224.8 221.9 224.4 222.7 224C224 223.4 225.5 223.1 227.2 223.1C228.8 223.1 230.3 223.4 231.7 224C234.1 225 235.3 226.5 235.3 228.4V246.9L232.3 248.3H232.1V228.4C232.1 227.7 231.5 227 230.2 226.5C229.3 226.1 228.3 226 227.2 226C226.1 226 225.1 226.2 224.2 226.5C222.9 227 222.3 227.6 222.3 228.4V246.9L219.3 248.3H219.1V228.4C219.1 227.7 218.5 227 217.2 226.5C216.3 226.1 215.3 226 214.2 226C213.1 226 212.1 226.2 211.2 226.5C209.9 227 209.3 227.6 209.3 228.4V246.9L206.3 248.3ZM257 247.6H243.7V224.2L245.4 223.4H255.6V223.6L254.3 226.4H247V234.1H255.7V234.3L254.4 237.1H247V244.8H258.3V245L257 247.6ZM264.5 248.3H264.3V224.2L267.3 222.8H267.5V246.9L264.5 248.3ZM279.1 226.3V244.8H283.7C284.8 244.8 285.8 244.6 286.7 244.3C288 243.8 288.6 243.2 288.6 242.4V228.8C288.6 228.1 288 227.4 286.7 226.9C285.8 226.5 284.8 226.4 283.7 226.4L279.1 226.3ZM283.7 247.6H275.9V224.2L277.6 223.4H283.7C285.3 223.4 286.8 223.7 288.2 224.3C290.6 225.3 291.8 226.8 291.8 228.7V242.3C291.8 244.3 290.6 245.7 288.2 246.7C286.8 247.3 285.3 247.6 283.7 247.6ZM300.3 248.3H300.1V228.4C300.1 226.4 301.3 225 303.7 224C305.1 223.4 306.5 223.1 308.2 223.1C309.8 223.1 311.3 223.4 312.7 224C315.1 225 316.3 226.5 316.3 228.4C316.3 228.4 316.3 234.6 316.3 246.9L313.3 248.3H313.1V237H303.3V246.9L300.3 248.3ZM303.4 228.4V234.1H313.2V228.4C313.2 227.7 312.6 227 311.3 226.5C310.4 226.1 309.4 226 308.3 226C307.2 226 306.2 226.2 305.3 226.5C304 227 303.4 227.6 303.4 228.4Z" fill="#10487A"/>
</svg>
